<svg width="851" height="548" viewBox="0 0 851 548" fill="none" xmlns="http://www.w3.org/2000/svg">
<path d="M160 11H124V124.5H223.5V92H160V11Z" fill="url(#paint0_linear_322_105)"/>
<path d="M338 36.5H325V69H338C338 124.5 339.5 126 400 124.5V92H376V69H400V36.5H376V21H338V36.5Z" fill="url(#paint1_linear_322_105)"/>
<path d="M415.5 102V69H527.5V102H491V183H453.5V102H415.5Z" fill="url(#paint2_linear_322_105)"/>
<path d="M534 183V69H569.5V124.5C569.5 109.5 576 95.5 608 95.5C640 95.5 637.5 140 637.5 183H600.5V136.724C600.5 133.231 598.506 129.98 595.236 128.755C587.901 126.008 582.229 125.813 574.608 128.734C571.414 129.959 569.5 133.165 569.5 136.587V183H534Z" fill="url(#paint3_linear_322_105)"/>
<path d="M482.5 509V421.5H514.5V447.5C514.5 447.5 514.5 420 547 420C585 420 582.5 454.5 582.5 454.5V509H547V459.259C547 456.387 545.259 453.749 542.509 452.921C535.691 450.866 530.543 451.09 523.771 452.995C520.89 453.805 519 456.51 519 459.503V509H482.5Z" fill="url(#paint4_linear_322_105)"/>
<path d="M475 509H439V421.5V394.5H475V421.5V509Z" fill="url(#paint5_linear_322_105)"/>
<path d="M256 472.5H322V457C322 438 304.5 421.5 285 421.5H265.5C239.5 421.5 225 441.5 225 462.5V479.5C225 497.5 247 512.5 267 512.5H280.5C303.5 512.5 322 494 322 484V475.5H286.5C286.11 480.295 281.5 481 279.5 481H266.5C260.5 481 256.826 477.597 256 472.5Z" fill="url(#paint6_linear_322_105)"/>
<path d="M259 87.5H325V72C325 53 307.5 36.5 288 36.5H268.5C242.5 36.5 228 56.5 228 77.5V94.5C228 112.5 250 127.5 270 127.5H283.5C306.5 127.5 325 109 325 99V90.5H289.5C289.11 95.2954 284.5 96 282.5 96H269.5C263.5 96 259.826 92.5971 259 87.5Z" fill="url(#paint7_linear_322_105)"/>
<path d="M673.5 146.5H739.5V131C739.5 112 722 95.5 702.5 95.5H683C657 95.5 642.5 115.5 642.5 136.5V153.5C642.5 171.5 664.5 186.5 684.5 186.5H698C721 186.5 739.5 168 739.5 158V149.5H704C703.61 154.295 699 155 697 155H684C678 155 674.326 151.597 673.5 146.5Z" fill="url(#paint8_linear_322_105)"/>
<path fill-rule="evenodd" clip-rule="evenodd" d="M431 421.5H398V441.5C398 441.5 398 420 367.5 420C346.871 420 328.755 431.5 327.5 454.5C326 482 335 498 367.5 498C391.643 498 396.675 483.902 397.724 478.025L395.145 501.601C394.773 505.004 391.993 507.639 388.575 507.829L367.5 509V502.5H333C333 502.5 327.5 539 378.5 539C425 539 431 509 431 509V421.5ZM394.5 459C394.5 455.134 391.366 452 387.5 452H371.5C367.634 452 364.5 455.134 364.5 459V462.5C364.5 466.366 367.634 469.5 371.5 469.5H387.5C391.366 469.5 394.5 466.366 394.5 462.5V459Z" fill="url(#paint9_linear_322_105)"/>
<path fill-rule="evenodd" clip-rule="evenodd" d="M105 509V394H194.5C220 394 223.422 448.05 188.5 449C188.5 449 220 449 220 475.5C220 506 194.5 509 194.5 509H105ZM140.5 427.5V436H178C182 436 182 427.5 178 427.5H140.5ZM140.5 475.5V467H182C187 467 187 475.5 182 475.5H140.5Z" fill="url(#paint10_linear_322_105)"/>
<path d="M475 421.5V509H439V421.5M475 421.5H439M475 421.5V394.5H439V421.5M600.5 136.724V183H637.5C637.5 140 640 95.5 608 95.5C576 95.5 569.5 109.5 569.5 124.5V69H534V183H569.5V136.587M600.5 136.724C600.5 133.231 598.506 129.98 595.236 128.755M600.5 136.724V136.724C600.5 133.231 598.506 129.98 595.236 128.755V128.755M595.236 128.755C587.901 126.008 582.229 125.813 574.608 128.734M574.608 128.734C571.414 129.959 569.5 133.165 569.5 136.587M574.608 128.734V128.734C571.414 129.959 569.5 133.165 569.5 136.587V136.587M547 459.259V509H582.5V454.5C582.5 454.5 585 420 547 420C514.5 420 514.5 447.5 514.5 447.5V421.5H482.5V509H519V459.503M547 459.259C547 456.387 545.259 453.749 542.509 452.921M547 459.259V459.259C547 456.387 545.259 453.749 542.509 452.921V452.921M542.509 452.921C535.691 450.866 530.543 451.09 523.771 452.995M523.771 452.995C520.89 453.805 519 456.51 519 459.503M523.771 452.995V452.995C520.89 453.805 519 456.51 519 459.503V459.503M388.575 507.829L367.5 509V502.5H333C333 502.5 327.5 539 378.5 539C425 539 431 509 431 509V421.5H398V441.5C398 441.5 398 420 367.5 420C346.871 420 328.755 431.5 327.5 454.5C326 482 335 498 367.5 498C391.643 498 396.675 483.902 397.724 478.025M388.575 507.829C391.993 507.639 394.773 505.004 395.145 501.601M388.575 507.829V507.829C391.993 507.639 394.773 505.004 395.145 501.601V501.601M395.145 501.601L397.724 478.025M397.724 478.025C398 476.477 398 475.5 398 475.5L397.724 478.025ZM124 11H160V92H223.5V124.5H124V11ZM325 36.5H338V21H376V36.5H400V69H376V92H400V124.5C339.5 126 338 124.5 338 69H325V36.5ZM415.5 69V102H453.5V183H491V102H527.5V69H415.5ZM105 394V509H194.5C194.5 509 220 506 220 475.5C220 449 188.5 449 188.5 449C223.422 448.05 220 394 194.5 394H105ZM140.5 427.5V436H178C182 436 182 427.5 178 427.5H140.5ZM140.5 467V475.5H182C187 475.5 187 467 182 467H140.5ZM322 472.5H256C256.826 477.597 260.5 481 266.5 481H279.5C281.5 481 286.11 480.295 286.5 475.5H322V484C322 494 303.5 512.5 280.5 512.5H267C247 512.5 225 497.5 225 479.5V462.5C225 441.5 239.5 421.5 265.5 421.5H285C304.5 421.5 322 438 322 457V472.5ZM256 454.5H286.5C286.5 454.5 285.5 449 279.5 449C272.829 449 272 449 266.5 449C257.5 449 256 454.5 256 454.5ZM325 87.5H259C259.826 92.5971 263.5 96 269.5 96H282.5C284.5 96 289.11 95.2954 289.5 90.5H325V99C325 109 306.5 127.5 283.5 127.5H270C250 127.5 228 112.5 228 94.5V77.5C228 56.5 242.5 36.5 268.5 36.5H288C307.5 36.5 325 53 325 72V87.5ZM259 69.5H289.5C289.5 69.5 288.5 64 282.5 64C275.829 64 275 64 269.5 64C260.5 64 259 69.5 259 69.5ZM739.5 146.5H673.5C674.326 151.597 678 155 684 155H697C699 155 703.61 154.295 704 149.5H739.5V158C739.5 168 721 186.5 698 186.5H684.5C664.5 186.5 642.5 171.5 642.5 153.5V136.5C642.5 115.5 657 95.5 683 95.5H702.5C722 95.5 739.5 112 739.5 131V146.5ZM673.5 128.5H704C704 128.5 703 123 697 123C690.329 123 689.5 123 684 123C675 123 673.5 128.5 673.5 128.5ZM394.5 462.5V459C394.5 455.134 391.366 452 387.5 452H371.5C367.634 452 364.5 455.134 364.5 459V462.5C364.5 466.366 367.634 469.5 371.5 469.5H387.5C391.366 469.5 394.5 466.366 394.5 462.5Z" stroke="#111111" stroke-width="7"/>
<path d="M341.064 134.477C341.971 128.876 350.029 128.876 350.936 134.477L354.113 154.099C354.803 158.357 360.198 159.802 362.924 156.46L375.487 141.056C379.073 136.659 386.051 140.687 384.036 145.992L376.977 164.574C375.445 168.605 379.395 172.555 383.426 171.023L402.009 163.964C407.313 161.949 411.341 168.927 406.944 172.513L391.54 185.076C388.198 187.802 389.643 193.197 393.901 193.887L413.523 197.064C419.124 197.971 419.124 206.029 413.523 206.936L393.901 210.113C389.643 210.803 388.198 216.198 391.54 218.924L406.944 231.487C411.341 235.073 407.313 242.051 402.008 240.036L383.426 232.977C379.395 231.445 375.445 235.395 376.977 239.426L384.036 258.009C386.051 263.313 379.073 267.341 375.487 262.944L362.924 247.54C360.198 244.198 354.803 245.643 354.113 249.901L350.936 269.523C350.029 275.124 341.971 275.124 341.064 269.523L337.887 249.901C337.197 245.643 331.802 244.198 329.076 247.54L316.513 262.944C312.927 267.341 305.949 263.313 307.964 258.008L315.023 239.426C316.555 235.395 312.605 231.445 308.574 232.977L289.991 240.036C284.687 242.051 280.659 235.073 285.056 231.487L300.46 218.924C303.802 216.198 302.357 210.803 298.099 210.113L278.477 206.936C272.876 206.029 272.876 197.971 278.477 197.064L298.099 193.887C302.357 193.197 303.802 187.802 300.46 185.076L285.056 172.513C280.659 168.927 284.687 161.949 289.992 163.964L308.574 171.023C312.605 172.555 316.555 168.605 315.023 164.574L307.964 145.991C305.949 140.687 312.927 136.659 316.513 141.056L329.076 156.46C331.802 159.802 337.197 158.357 337.887 154.099L341.064 134.477Z" fill="#111111"/>
<path d="M228 228C228 213.641 239.641 202 254 202H818C832.359 202 844 213.641 844 228V365C844 379.359 832.359 391 818 391H764.5C760.634 391 757.5 394.134 757.5 398V444.881C757.5 450.313 750.857 452.949 747.133 448.995L700.198 399.172C695.285 393.957 688.438 391 681.273 391H254C239.641 391 228 379.359 228 365V228Z" fill="#6500B6"/>
<path d="M243 198.5H807C819.426 198.5 829.5 208.574 829.5 221V358C829.5 370.426 819.426 380.5 807 380.5H753.5C747.701 380.5 743 385.201 743 391V437.881C743 440.144 740.232 441.242 738.68 439.595L691.746 389.772C686.172 383.855 678.402 380.5 670.273 380.5H243C230.574 380.5 220.5 370.426 220.5 358V221C220.5 208.574 230.574 198.5 243 198.5Z" fill="#7BAE13" stroke="black" stroke-width="7"/>
<path d="M723.6 321.017H789.6V305.517C789.6 286.517 772.1 270.017 752.6 270.017H733.1C707.1 270.017 692.6 290.017 692.6 311.017V328.017C692.6 346.017 714.6 361.017 734.6 361.017H748.1C771.1 361.017 789.6 342.517 789.6 332.517V324.017H754.1C753.709 328.812 749.1 329.517 747.1 329.517H734.1C728.1 329.517 724.426 326.114 723.6 321.017Z" fill="#8512BC"/>
<path d="M417.6 357.016V291.016H376.1H348.6V320.016H380.6C380.6 320.016 346.6 332.517 334.1 321.017C321.454 309.383 326.1 284.517 333.1 278.517C347.035 266.572 374.703 277.517 375.6 280.017C376.496 282.517 376.1 291.016 376.1 291.016H417.6C417.6 291.016 420.1 269.445 402.1 254.017C388.1 242.017 329.1 227.517 300.1 265.517C279.471 292.547 293.1 340.517 317.1 353.517C335.382 363.419 360.1 359.016 360.1 359.016C380.634 352.638 384.67 345.979 385.6 331.516V357.016H417.6Z" fill="#8512BC"/>
<path fill-rule="evenodd" clip-rule="evenodd" d="M517.1 357.016V294.516C517.1 294.516 516.1 263.516 465.1 268.516C421.398 272.801 424.6 307.516 424.6 307.516H458.1V298.516H482.6V307.516C482.6 307.516 449.6 302.016 427.1 320.016C422.097 324.019 416.141 341.651 429.6 352.016C439.965 359.999 458.1 357.016 458.1 357.016C473.7 355.673 478.178 350.62 482.6 338.016V357.016H517.1ZM473.829 329.345C474.36 328.771 474.004 327.902 473.223 327.859C468.985 327.626 458.602 327.706 458.118 334.034C458.095 334.325 458.23 334.617 458.463 334.793C463.96 338.956 471.065 332.336 473.829 329.345Z" fill="#8512BC"/>
<path d="M524.6 357.016V268.516H557.6V294.516C563.6 257.517 614.1 259.017 618.6 294.516C622.1 259.517 678.6 258.017 683.1 294.516V357.016H649.6V302.016C636.919 298.936 631.008 299.112 622.1 302.016V357.016H586.6V302.016C576.446 297.876 570.753 298.024 560.6 302.016V357.016H524.6Z" fill="#8512BC"/>
<path d="M716.6 312.017H782.6V296.517C782.6 277.517 765.1 261.017 745.6 261.017H726.1C700.1 261.017 685.6 281.017 685.6 302.017V319.017C685.6 337.017 707.6 352.017 727.6 352.017H741.1C764.1 352.017 782.6 333.517 782.6 323.517V315.017H747.1C746.709 319.812 742.1 320.517 740.1 320.517H727.1C721.1 320.517 717.426 317.114 716.6 312.017Z" fill="#FBD800"/>
<path d="M410.6 348.016V282.016H369.1H341.6V311.016H373.6C373.6 311.016 339.6 323.517 327.1 312.017C314.454 300.383 319.1 275.517 326.1 269.517C340.035 257.572 367.703 268.517 368.6 271.017C369.496 273.517 369.1 282.016 369.1 282.016H410.6C410.6 282.016 413.1 260.445 395.1 245.017C381.1 233.017 322.1 218.517 293.1 256.517C272.471 283.547 286.1 331.517 310.1 344.517C328.382 354.419 353.1 350.016 353.1 350.016C373.634 343.638 377.67 336.979 378.6 322.516V348.016H410.6Z" fill="#FBD800"/>
<path fill-rule="evenodd" clip-rule="evenodd" d="M510.1 348.016V285.516C510.1 285.516 509.1 254.516 458.1 259.516C414.398 263.801 417.6 298.516 417.6 298.516H451.1V289.516H475.6V298.516C475.6 298.516 442.6 293.016 420.1 311.016C415.097 315.019 409.141 332.651 422.6 343.016C432.965 350.999 451.1 348.016 451.1 348.016C466.7 346.673 471.178 341.62 475.6 329.016V348.016H510.1ZM466.829 320.345C467.36 319.771 467.004 318.902 466.223 318.859C461.985 318.626 451.602 318.706 451.118 325.034C451.095 325.325 451.23 325.617 451.463 325.793C456.96 329.956 464.065 323.336 466.829 320.345Z" fill="#FBD800"/>
<path d="M517.6 348.016V259.516H550.6V285.516C556.6 248.517 607.1 250.017 611.6 285.516C615.1 250.517 671.6 249.017 676.1 285.516V348.016H642.6V293.016C629.919 289.936 624.008 290.112 615.1 293.016V348.016H579.6V293.016C569.446 288.876 563.753 289.024 553.6 293.016V348.016H517.6Z" fill="#FBD800"/>
<path d="M410.6 282.016V348.016H378.6V322.516C377.67 336.979 373.634 343.638 353.1 350.016C353.1 350.016 328.382 354.419 310.1 344.517C286.1 331.517 272.471 283.547 293.1 256.517C322.1 218.517 381.1 233.017 395.1 245.017C413.1 260.445 410.6 282.016 410.6 282.016ZM410.6 282.016H369.1M369.1 282.016H341.6V311.016H373.6C373.6 311.016 339.6 323.517 327.1 312.017C314.454 300.383 319.1 275.517 326.1 269.517C340.035 257.572 367.703 268.517 368.6 271.017C369.496 273.517 369.1 282.016 369.1 282.016ZM517.6 348.016V259.516H550.6V285.516C556.6 248.517 607.1 250.017 611.6 285.516C615.1 250.517 671.6 249.017 676.1 285.516V348.016H642.6V293.016C629.919 289.936 624.008 290.112 615.1 293.016V348.016H579.6V293.016C569.446 288.876 563.753 289.024 553.6 293.016V348.016H517.6ZM510.1 348.016V285.516C510.1 285.516 509.1 254.516 458.1 259.516C414.398 263.801 417.6 298.516 417.6 298.516H451.1V289.516H475.6V298.516C475.6 298.516 442.6 293.016 420.1 311.016C415.097 315.019 409.141 332.651 422.6 343.016C432.965 350.999 451.1 348.016 451.1 348.016C466.7 346.673 471.178 341.62 475.6 329.016V348.016H510.1ZM782.6 312.017H716.6C717.426 317.114 721.1 320.517 727.1 320.517H740.1C742.1 320.517 746.709 319.812 747.1 315.017H782.6V323.517C782.6 333.517 764.1 352.017 741.1 352.017H727.6C707.6 352.017 685.6 337.017 685.6 319.017V302.017C685.6 281.017 700.1 261.017 726.1 261.017H745.6C765.1 261.017 782.6 277.517 782.6 296.517V312.017ZM716.6 294.017H747.1C747.1 294.017 746.1 288.517 740.1 288.517C733.429 288.517 732.6 288.517 727.1 288.517C718.1 288.517 716.6 294.017 716.6 294.017ZM451.118 325.034C451.602 318.706 461.985 318.626 466.223 318.859C467.004 318.902 467.36 319.771 466.829 320.345C464.065 323.336 456.96 329.956 451.463 325.793C451.23 325.617 451.095 325.325 451.118 325.034Z" stroke="#111111" stroke-width="7"/>
<path d="M111.425 112.604C70.9255 106.604 34.641 146.625 70.9254 173.104C81.9255 181.132 102.425 183.104 111.425 194.104C117.08 200.408 129.426 193.104 122.426 188.104C100.94 165.014 66.9255 165.604 67.9255 150.104C68.9255 134.604 79.5372 126.013 111.425 127.104C117.926 127.327 119.426 113.789 111.425 112.604Z" fill="#6400B6" stroke="#111111" stroke-width="4" stroke-linecap="round"/>
<path d="M141.254 193.661C139.303 190.833 135.961 189.295 132.496 188.564C128.972 187.821 124.937 187.822 121.05 188.407C117.162 188.992 113.279 190.181 110.073 191.93C106.917 193.652 104.113 196.089 102.927 199.321C101.546 203.082 101.598 207.541 102.158 211.636C103.811 223.709 116.047 229.609 127.147 227.94C137.868 226.327 147.705 217.557 145.77 205.82C145.087 201.68 143.764 197.298 141.254 193.661Z" fill="#FBD800" stroke="#111111" stroke-width="5"/>
<rect x="-3.00251" y="232.171" width="262.618" height="145.091" rx="59.5" transform="rotate(-13.129 -3.00251 232.171)" fill="#6400B6" stroke="#111111" stroke-width="5"/>
<rect x="1.94341" y="230.968" width="259.618" height="127.186" rx="59.5" transform="rotate(-13.129 1.94341 230.968)" fill="#FE05AE" stroke="#111111" stroke-width="5"/>
<circle cx="83.9459" cy="273" r="40.5" fill="#6400B6" stroke="#111111" stroke-width="5"/>
<circle cx="205.946" cy="246" r="40.5" fill="#6400B6" stroke="#111111" stroke-width="5"/>
<path d="M143.325 274.327C145.039 272.848 147.711 273.727 148.212 275.935L150.771 287.222C151.286 289.497 149.123 291.464 146.907 290.735L135.589 287.012C133.373 286.283 132.8 283.415 134.565 281.891L143.325 274.327Z" fill="white"/>
<path d="M166.788 279.145C168.394 277.548 167.72 274.817 165.557 274.15L154.497 270.742C152.268 270.055 150.142 272.063 150.7 274.327L153.554 285.896C154.112 288.16 156.928 288.949 158.582 287.305L166.788 279.145Z" fill="white"/>
<circle cx="129.946" cy="253" r="3" fill="#D9D9D9"/>
<circle cx="86.9459" cy="221" r="3" fill="#D9D9D9"/>
<circle cx="3" cy="3" r="3" transform="matrix(-0.951723 0.306957 0.306957 0.951723 174.656 201)" fill="#D9D9D9"/>
<circle cx="40.9459" cy="241" r="3" fill="#D9D9D9"/>
<circle cx="4.10448" cy="4.10448" r="4.10448" transform="matrix(-0.951723 0.306957 0.306957 0.951723 246.759 276)" fill="#D9D9D9"/>
<path d="M47.5914 312.764C54.4459 324.752 80.9459 332.5 93.1413 324.752" stroke="white" stroke-width="7" stroke-linecap="round"/>
<path d="M239.446 206.5C226.446 192.5 201.446 192 186.446 199.5" stroke="white" stroke-width="7" stroke-linecap="round"/>
<path d="M231.95 294.197C224.822 299.104 203.886 305.488 190.332 296.201" stroke="white" stroke-width="7" stroke-linecap="round"/>
<circle cx="26.9459" cy="273" r="3" fill="#D9D9D9"/>
<circle cx="3" cy="3" r="3" transform="matrix(-0.951723 0.306957 0.306957 0.951723 252.656 213)" fill="#D9D9D9"/>
<circle cx="152.946" cy="249" r="3" fill="#D9D9D9"/>
<rect x="71.3567" y="256.047" width="14" height="38" rx="7" transform="rotate(-18.0291 71.3567 256.047)" fill="#FBD800"/>
<rect x="67.6835" y="283.533" width="14" height="38" rx="7" transform="rotate(-108.029 67.6835 283.533)" fill="#FBD800"/>
<rect x="185.279" y="250.718" width="14" height="14.2328" rx="7" transform="rotate(-108.029 185.279 250.718)" fill="#FBD800"/>
<rect x="211.279" y="243.718" width="14" height="14.2328" rx="7" transform="rotate(-108.029 211.279 243.718)" fill="#FBD800"/>
<rect x="208.279" y="266.718" width="14" height="14.2328" rx="7" transform="rotate(-108.029 208.279 266.718)" fill="#FBD800"/>
<rect x="127.946" y="307.127" width="24" height="14" rx="5" transform="rotate(-13.0061 127.946 307.127)" fill="#6500B6"/>
<rect x="156.951" y="299.401" width="24" height="14" rx="5" transform="rotate(-13.0061 156.951 299.401)" fill="#6500B6"/>
<path d="M104.414 228.633C98.9355 215.282 117.864 206.466 122.785 222.929" stroke="#6400B6" stroke-width="4" stroke-linecap="round"/>
<path d="M143.275 219.96C137.796 206.61 156.724 197.793 161.645 214.256" stroke="#6400B6" stroke-width="4" stroke-linecap="round"/>
<path d="M143.65 230C146.175 240.475 131.749 244.965 129.946 232.245" stroke="#6400B6" stroke-width="4" stroke-linecap="round"/>
<defs>
<linearGradient id="paint0_linear_322_105" x1="422.25" y1="11" x2="422.25" y2="539" gradientUnits="userSpaceOnUse">
<stop stop-color="#9219BE"/>
<stop offset="1" stop-color="#6501B6"/>
</linearGradient>
<linearGradient id="paint1_linear_322_105" x1="422.25" y1="11" x2="422.25" y2="539" gradientUnits="userSpaceOnUse">
<stop stop-color="#9219BE"/>
<stop offset="1" stop-color="#6501B6"/>
</linearGradient>
<linearGradient id="paint2_linear_322_105" x1="422.25" y1="11" x2="422.25" y2="539" gradientUnits="userSpaceOnUse">
<stop stop-color="#9219BE"/>
<stop offset="1" stop-color="#6501B6"/>
</linearGradient>
<linearGradient id="paint3_linear_322_105" x1="422.25" y1="11" x2="422.25" y2="539" gradientUnits="userSpaceOnUse">
<stop stop-color="#9219BE"/>
<stop offset="1" stop-color="#6501B6"/>
</linearGradient>
<linearGradient id="paint4_linear_322_105" x1="422.25" y1="11" x2="422.25" y2="539" gradientUnits="userSpaceOnUse">
<stop stop-color="#9219BE"/>
<stop offset="1" stop-color="#6501B6"/>
</linearGradient>
<linearGradient id="paint5_linear_322_105" x1="422.25" y1="11" x2="422.25" y2="539" gradientUnits="userSpaceOnUse">
<stop stop-color="#9219BE"/>
<stop offset="1" stop-color="#6501B6"/>
</linearGradient>
<linearGradient id="paint6_linear_322_105" x1="422.25" y1="11" x2="422.25" y2="539" gradientUnits="userSpaceOnUse">
<stop stop-color="#9219BE"/>
<stop offset="1" stop-color="#6501B6"/>
</linearGradient>
<linearGradient id="paint7_linear_322_105" x1="422.25" y1="11" x2="422.25" y2="539" gradientUnits="userSpaceOnUse">
<stop stop-color="#9219BE"/>
<stop offset="1" stop-color="#6501B6"/>
</linearGradient>
<linearGradient id="paint8_linear_322_105" x1="422.25" y1="11" x2="422.25" y2="539" gradientUnits="userSpaceOnUse">
<stop stop-color="#9219BE"/>
<stop offset="1" stop-color="#6501B6"/>
</linearGradient>
<linearGradient id="paint9_linear_322_105" x1="422.25" y1="11" x2="422.25" y2="539" gradientUnits="userSpaceOnUse">
<stop stop-color="#9219BE"/>
<stop offset="1" stop-color="#6501B6"/>
</linearGradient>
<linearGradient id="paint10_linear_322_105" x1="422.25" y1="11" x2="422.25" y2="539" gradientUnits="userSpaceOnUse">
<stop stop-color="#9219BE"/>
<stop offset="1" stop-color="#6501B6"/>
</linearGradient>
</defs>
</svg>
